Coordinates
version=1
nRows=11
nColumns=40
inDegrees=yes

Units are S.I. units (second, meters, Newtons, ...)
Angles are in degrees.

endheader
time	pelvis_tilt	pelvis_list	pelvis_rotation	pelvis_tx	pelvis_ty	pelvis_tz	hip_flexion_r	hip_adduction_r	hip_rotation_r	knee_angle_r	knee_angle_r_beta	ankle_angle_r	subtalar_angle_r	mtp_angle_r	hip_flexion_l	hip_adduction_l	hip_rotation_l	knee_angle_l	knee_angle_l_beta	ankle_angle_l	subtalar_angle_l	mtp_angle_l	lumbar_extension	lumbar_bending	lumbar_rotation	arm_flex_r	arm_add_r	arm_rot_r	elbow_flex_r	pro_sup_r	wrist_flex_r	wrist_dev_r	arm_flex_l	arm_add_l	arm_rot_l	elbow_flex_l	pro_sup_l	wrist_flex_l	wrist_dev_l
      6.92000000	     -4.06751622	     -6.01159481	      2.05698728	      0.97778752	      0.93011863	      0.52555206	     14.03081943	      4.34062523	    -15.65684342	     15.64678670	     15.64678670	      7.77355162	      1.24850068	     -4.10786907	     32.07108055	    -12.71770178	      3.75747257	     67.71268674	     67.71268674	      5.79918894	    -18.82642253	     12.99921533	    -12.88794328	      5.10622684	      3.69609591	      7.71888766	    -14.79588883	     -2.87326211	     58.83372000	     45.52482580	      0.00000000	      0.00000000	     12.80494544	    -10.21078982	      0.15030997	     57.18268479	     46.17172876	      0.00000000	      0.00000000
      6.93142857	     -4.17187506	     -6.15046792	      2.34905189	      0.97626885	      0.93002335	      0.52612024	     13.61379191	      4.54883846	    -15.72417331	     15.53437849	     15.53437849	      8.10022014	      1.13971363	     -4.17868560	     33.84967222	    -12.97351171	      3.43857034	     66.04507887	     66.04507887	      6.36606930	    -19.03137183	     13.13651999	    -12.98044031	      5.10398274	      3.98140453	     10.26594719	    -15.15102550	     -3.10306496	     60.19965531	     45.49860343	      0.00000000	      0.00000000	     11.39685721	     -9.64184352	      0.44908836	     56.10058088	     46.12567067	      0.00000000	      0.00000000
      6.94285714	     -4.24709423	     -6.37420182	      2.83350859	      0.97479117	      0.92986426	      0.52657506	     13.10779235	      4.91000584	    -15.68962340	     15.26449333	     15.26449333	      8.48963805	      0.45217420	     -3.88932737	     35.55033514	    -13.03971874	      3.47867536	     64.23930168	     64.23930168	      7.55530457	    -19.10158181	     15.43110869	    -13.01672711	      5.39669412	      3.24065441	     12.31382097	    -15.52356322	     -1.55192236	     65.36551070	     45.27476491	      0.00000000	      0.00000000	     11.28378718	     -9.16787773	     -0.29407218	     49.81691585	     46.19186265	      0.00000000	      0.00000000
      6.95428571	     -4.28773938	     -6.48863544	      3.19231690	      0.97343614	      0.92975820	      0.52695011	     12.62959552	      5.10057652	    -15.76620582	     15.14972378	     15.14972378	      8.84841603	      0.17581220	     -3.86153199	     36.83437879	    -13.05682673	      3.23979354	     61.95575556	     61.95575556	      8.01855533	    -19.17066038	     15.88202546	    -13.15691175	      5.48801492	      2.64613235	     15.16750489	    -15.22360852	     -1.78664994	     67.76013591	     45.21666896	      0.00000000	      0.00000000	      9.87940417	     -9.10735904	     -0.17282316	     47.73819907	     46.15878137	      0.00000000	      0.00000000
      6.96571429	     -4.38759711	     -6.56746244	      3.46201188	      0.97212341	      0.92957722	      0.52718129	     12.22558828	      5.25745285	    -15.70727454	     15.05913903	     15.05913903	      9.31197453	     -0.11258380	     -3.54601391	     37.97998301	    -12.88152156	      3.11736310	     59.46370324	     59.46370324	      8.74534134	    -19.17097796	     17.22044338	    -13.20841666	      5.58339043	      3.02615388	     17.06695446	    -16.00063187	     -1.21917073	     71.37757288	     45.09719580	      0.00000000	      0.00000000	     10.05387696	     -8.12359036	     -0.77908864	     42.56267745	     46.23024342	      0.00000000	      0.00000000
      6.97714286	     -4.45419780	     -6.56938860	      3.69582194	      0.97100341	      0.92946528	      0.52726169	     11.75755158	      5.31250696	    -15.73214742	     14.94771581	     14.94771581	      9.68958824	     -0.23140699	     -3.55105883	     38.79919447	    -12.56969071	      2.99209919	     56.61080730	     56.61080730	      8.99555035	    -19.12900622	     17.40843344	    -13.32009600	      5.58295138	      2.64146191	     19.80897471	    -15.68310543	     -1.47434182	     73.63059411	     45.04693926	      0.00000000	      0.00000000	      8.71366150	     -7.98535568	     -0.73179875	     40.63949238	     46.20478306	      0.00000000	      0.00000000
      6.98857143	     -4.64751945	     -6.72159155	      3.82366521	      0.96996632	      0.92904605	      0.52732616	     11.49870556	      5.50145608	    -15.77912866	     14.96031059	     14.96031059	     10.05447563	     -0.31517055	     -3.67930196	     39.61090720	    -12.31936963	      3.11240459	     53.58705036	     53.58705036	      9.33380911	    -18.83182947	     17.55276793	    -13.19879288	      5.68188466	      3.27934449	     21.96724696	    -16.09991880	     -1.75929755	     74.64607106	     45.03335967	      0.00000000	      0.00000000	      7.49492272	     -7.60873363	     -0.64637903	     39.88589516	     46.17612277	      0.00000000	      0.00000000
      7.00000000	     -4.70787594	     -6.45743526	      3.93363678	      0.96903654	      0.92911316	      0.52692591	     10.91658659	      5.24483295	    -15.80546343	     14.73621910	     14.73621910	     10.55732893	     -0.00351026	     -3.36568702	     39.83266733	    -11.58885901	      3.10008246	     50.04878511	     50.04878511	      8.67903192	    -18.76592609	     15.78882456	    -13.37374951	      5.50696356	      2.96852283	     24.38724523	    -16.33315773	     -1.00670102	     79.26680577	     44.89433643	      0.00000000	      0.00000000	      7.80723594	     -6.90877293	     -1.21320676	     33.44172097	     46.24948473	      0.00000000	      0.00000000
      7.01142857	     -4.86595115	     -6.27690398	      3.93449811	      0.96823425	      0.92894001	      0.52655448	     10.47980285	      5.08171191	    -15.70274753	     14.58197595	     14.58197595	     10.93196977	      0.09593379	     -3.45382892	     40.07529646	    -10.88904548	      3.38724091	     46.52762525	     46.52762525	      8.79250557	    -18.22701924	     15.73886002	    -13.36509379	      5.30909580	      2.94929176	     27.06926210	    -16.13758037	     -1.27914389	     81.16421355	     44.85649228	      0.00000000	      0.00000000	      6.41946867	     -6.75269347	     -1.17590795	     32.24244528	     46.22275108	      0.00000000	      0.00000000
      7.02285714	     -5.04523184	     -6.17706555	      3.91682771	      0.96757604	      0.92868800	      0.52610434	     10.05178257	      4.99158809	    -15.70860661	     14.40879996	     14.40879996	     11.29909030	      0.33180390	     -3.55195343	     40.17822787	    -10.33044340	      3.73284883	     42.87035443	     42.87035443	      8.93437121	    -17.12812323	     15.33467213	    -13.31282353	      5.22695073	      2.86406823	     29.65577738	    -15.90212417	     -1.30679535	     83.23633692	     44.80496397	      0.00000000	      0.00000000	      5.05851366	     -6.58027861	     -1.09446494	     30.81949028	     46.19027666	      0.00000000	      0.00000000
      7.03428571	     -5.13238492	     -6.08679768	      3.84730299	      0.96724721	      0.92848751	      0.52567580	      9.45792091	      4.92195105	    -15.73181223	     14.16937760	     14.16937760	     11.70858422	      0.76291651	     -3.63938984	     40.01512621	     -9.91372892	      4.02542765	     39.16989571	     39.16989571	      9.06243422	    -15.45032701	     14.44552448	    -13.31767552	      5.13468560	      2.70261997	     32.13185246	    -15.51159640	     -1.03411863	     85.61508002	     44.73545902	      0.00000000	      0.00000000	      3.76532555	     -6.47314852	     -0.96253534	     29.09326429	     46.15185308	      0.00000000	      0.00000000
